<?xml version="1.0" encoding="utf-8"?>
<!-- Generator: Adobe Illustrator 24.0.2, SVG Export Plug-In . SVG Version: 6.00 Build 0)  -->
<svg version="1.1" id="Layer_1" xmlns="http://www.w3.org/2000/svg" xmlns:xlink="http://www.w3.org/1999/xlink" x="0px" y="0px"
	 viewBox="0 0 383.6 85.4" enable-background="new 0 0 383.6 85.4" xml:space="preserve">
<g>
	<path fill="#FFFFFF" d="M48.5,64.7c0,0.9-0.3,1.6-1,2.1c-0.6,0.5-1.3,0.8-2.1,0.8c-0.8,0-1.5-0.3-2-1L18.1,34.7L5.7,46.3v18.1
		c-0.1,0.8-0.4,1.5-0.9,2c-0.5,0.5-1.2,0.8-2,0.8c-0.8,0-1.5-0.3-2-0.8c-0.5-0.5-0.8-1.2-0.8-2v-58c0-0.8,0.3-1.5,0.8-2
		c0.5-0.5,1.2-0.8,2.1-0.8c0.8,0,1.5,0.3,2,0.8c0.5,0.5,0.8,1.2,0.8,2v33L42.4,4.7c0.5-0.6,1.2-0.9,2-0.9c0.7,0,1.3,0.3,1.9,0.8
		c0.5,0.5,0.8,1.2,0.8,1.8c0,0.7-0.3,1.4-0.8,1.9L22.4,30.6l25.4,32.2C48.3,63.4,48.5,64,48.5,64.7z"/>
	<path fill="#FFFFFF" d="M104.2,21.6c0.5,0.5,0.8,1.2,0.8,2v40.9c0,0.8-0.3,1.4-0.8,2c-0.5,0.5-1.2,0.8-2,0.8s-1.4-0.3-2-0.8
		c-0.5-0.5-0.8-1.2-0.8-2v-6.1c-1.5,2.7-3.8,5-6.8,6.9c-3,1.9-6.3,2.8-9.9,2.8c-4.1,0-7.7-1.1-10.9-3.2c-3.2-2.1-5.8-5-7.6-8.7
		c-1.8-3.7-2.8-7.8-2.8-12.4s0.9-8.7,2.8-12.4c1.9-3.7,4.4-6.5,7.7-8.6c3.2-2.1,6.8-3.1,10.8-3.1c3.6,0,7,0.9,10,2.6
		c3,1.8,5.3,4.1,6.8,6.9v-5.6c0-0.8,0.3-1.5,0.8-2c0.5-0.5,1.2-0.8,2-0.8S103.6,21.1,104.2,21.6z M91.8,60.5c2.5-1.7,4.5-4,5.9-6.9
		c1.4-2.9,2.1-6.2,2.1-9.9c0-3.5-0.7-6.7-2.1-9.6c-1.4-2.9-3.4-5.2-5.9-6.9c-2.5-1.7-5.3-2.5-8.5-2.5c-3.1,0-6,0.8-8.5,2.5
		c-2.5,1.6-4.5,3.9-5.9,6.8c-1.4,2.9-2.1,6.1-2.1,9.8c0,3.6,0.7,6.9,2.1,9.9c1.4,2.9,3.3,5.2,5.9,6.9c2.5,1.7,5.4,2.5,8.6,2.5
		C86.5,63,89.3,62.2,91.8,60.5z"/>
	<path fill="#FFFFFF" d="M129,66.5c-0.5,0.5-1.2,0.8-2,0.8s-1.4-0.3-2-0.8c-0.5-0.5-0.8-1.2-0.8-2V2.7c0-0.8,0.3-1.4,0.8-2
		c0.5-0.5,1.2-0.8,2-0.8s1.4,0.3,2,0.8c0.5,0.5,0.8,1.2,0.8,2v61.8C129.7,65.3,129.5,65.9,129,66.5z"/>
	<path fill="#FFFFFF" d="M213.1,66.5c-0.5,0.5-1.2,0.8-2,0.8s-1.4-0.3-2-0.8c-0.5-0.5-0.8-1.2-0.8-2V2.7c0-0.8,0.3-1.4,0.8-2
		c0.5-0.5,1.2-0.8,2-0.8s1.4,0.3,2,0.8c0.5,0.5,0.8,1.2,0.8,2v61.8C213.9,65.3,213.6,65.9,213.1,66.5z"/>
	<path fill="#FFFFFF" d="M268.5,20.8c0.5,0.5,0.8,1.2,0.8,2v40.1c0,4.8-0.9,8.9-2.8,12.3c-1.9,3.4-4.5,6-7.8,7.7
		c-3.3,1.8-7.1,2.6-11.3,2.6c-2.5,0-4.9-0.3-7.1-0.8c-2.2-0.5-4-1.3-5.5-2.2c-1.3-0.8-1.9-1.7-1.9-2.6c0-0.1,0.1-0.4,0.2-0.9
		c0.2-0.6,0.5-1.1,0.9-1.4c0.4-0.3,0.9-0.5,1.4-0.5c0.4,0,0.7,0.1,1.1,0.3c3.9,2.1,7.6,3.2,11.1,3.2c5,0,9-1.6,11.9-4.7
		c2.9-3.2,4.4-7.5,4.4-12.9v-3.2c-1.5,2.5-3.7,4.6-6.5,6.1c-2.8,1.5-5.9,2.3-9.3,2.3c-5.3,0-9.3-1.6-12-4.7
		c-2.7-3.1-4.1-7.4-4.1-12.8V22.7c0-0.8,0.3-1.4,0.8-2c0.5-0.5,1.2-0.8,2-0.8c0.8,0,1.4,0.3,2,0.8c0.5,0.5,0.8,1.2,0.8,2v27.1
		c0,4.4,1,7.7,2.9,9.9c1.9,2.2,4.9,3.4,8.9,3.4c2.5,0,4.9-0.6,7.1-1.9c2.3-1.2,4.1-2.9,5.5-4.9c1.4-2,2-4.2,2-6.5V22.7
		c0-0.8,0.3-1.4,0.8-2c0.5-0.5,1.2-0.8,2-0.8S268,20.2,268.5,20.8z"/>
	<path fill="#FFFFFF" d="M297.2,26.1v30.4c0,2.3,0.4,3.9,1.3,4.7c0.8,0.8,2,1.2,3.4,1.2c0.4,0,0.8-0.1,1.4-0.2
		c0.5-0.2,1-0.2,1.3-0.2c0.5,0,1,0.2,1.4,0.7c0.4,0.5,0.6,1,0.6,1.6c0,0.8-0.5,1.6-1.5,2.1c-1,0.6-2.1,0.9-3.5,0.9
		c-1.6,0-3.1-0.2-4.4-0.5c-1.3-0.3-2.5-1.2-3.7-2.7c-1.2-1.5-1.8-3.9-1.8-7.3V26.1h-6.6c-0.7,0-1.3-0.2-1.9-0.7
		c-0.5-0.5-0.8-1.1-0.8-1.8s0.3-1.3,0.8-1.8c0.5-0.5,1.1-0.7,1.9-0.7h6.6V10.9c0-0.8,0.3-1.4,0.8-2c0.5-0.5,1.2-0.8,2-0.8
		s1.4,0.3,2,0.8c0.5,0.5,0.8,1.2,0.8,2V21h9.1c0.7,0,1.3,0.3,1.8,0.8c0.5,0.5,0.8,1.2,0.8,1.8c0,0.7-0.2,1.3-0.7,1.8
		c-0.5,0.5-1.1,0.7-1.8,0.7H297.2z"/>
	<path fill="#FFFFFF" d="M323.1,13c-0.7-0.6-1-1.4-1-2.5V9.6c0-1.1,0.3-1.9,1-2.5c0.7-0.6,1.6-0.9,2.9-0.9c2.4,0,3.6,1.1,3.6,3.4
		v0.9c0,1.1-0.3,1.9-1,2.5c-0.6,0.6-1.6,0.9-2.8,0.9C324.7,13.9,323.8,13.6,323.1,13z M327.9,66.5c-0.5,0.5-1.2,0.8-2,0.8
		c-0.8,0-1.4-0.3-2-0.8c-0.5-0.5-0.8-1.2-0.8-2V22.7c0-0.8,0.3-1.4,0.8-2c0.5-0.5,1.2-0.8,2-0.8c0.8,0,1.4,0.3,2,0.8
		c0.5,0.5,0.8,1.2,0.8,2v41.8C328.7,65.3,328.4,65.9,327.9,66.5z"/>
	<path fill="#FFFFFF" d="M375.4,20.7c2.5,0.6,4.4,1.5,5.9,2.6c1.5,1.1,2.2,2.3,2.2,3.5c0,0.7-0.2,1.3-0.7,1.8s-1,0.8-1.7,0.8
		c-0.6,0-1.1-0.1-1.5-0.4c-0.4-0.2-0.8-0.6-1.3-1.1c-0.8-0.8-1.5-1.4-2.3-1.7c-0.9-0.4-2.1-0.8-3.6-1c-1.5-0.3-3.1-0.4-4.8-0.4
		c-3.3,0-6.4,0.8-9.1,2.5c-2.8,1.7-4.9,4-6.5,6.9c-1.6,2.9-2.4,6.1-2.4,9.6c0,3.6,0.8,6.9,2.3,9.8c1.5,2.9,3.6,5.2,6.3,6.9
		c2.7,1.7,5.8,2.5,9.2,2.5c2.2,0,3.9-0.2,5.2-0.5c1.3-0.4,2.6-0.9,3.9-1.5c0.4-0.2,1.1-0.8,2.2-1.6c0.5-0.4,0.9-0.7,1.3-1
		c0.4-0.2,0.8-0.3,1.2-0.3c0.7,0,1.3,0.2,1.7,0.7c0.4,0.5,0.6,1,0.6,1.8c0,1-0.7,2.1-2.2,3.3c-1.5,1.2-3.5,2.2-6,3s-5.4,1.3-8.4,1.3
		c-4.4,0-8.4-1-11.8-3.1c-3.5-2.1-6.1-5-8-8.7c-1.9-3.7-2.9-7.8-2.9-12.4c0-4.4,1-8.5,2.9-12.1c1.9-3.7,4.7-6.6,8.2-8.8
		c3.5-2.2,7.5-3.3,12.1-3.3C370.3,19.7,373,20,375.4,20.7z"/>
</g>
<g>
	<path fill="#A6CE39" d="M188.5,57.7c3.9-4.6,6.2-10.5,6.2-17c0-14.6-11.8-26.4-26.4-26.4c-3.6,0-7,0.7-10.1,2
		C166.8,20.3,187.9,32.6,188.5,57.7z"/>
	<path fill="#2E3192" d="M144.7,29.1c-1.7,3.5-2.7,7.5-2.7,11.7c0,2,0.2,4,0.7,5.9c0.4-0.2,27.9-13.5,44.1,13.1
		c0.6-0.6,1.2-1.2,1.8-1.9C188.4,57.5,178.5,28,144.7,29.1z"/>
	<path fill="#EF3D46" d="M147.4,56.8c4.8,6.3,12.4,10.3,20.9,10.3c7.2,0,13.6-2.9,18.4-7.5C186.5,59.4,169.1,41.9,147.4,56.8z"/>
</g>
</svg>
